<svg width="512" height="512" viewBox="0 0 512 512" fill="none" xmlns="http://www.w3.org/2000/svg">
<rect width="512" height="512" fill="#393e46"/>
<path d="M153.997 332V320.062H129.974V212.029H166.009V200.018H129.974V176.067H117.962V188.006H105.95V200.018H94.0117V212.029H105.95V320.062H117.962V332H153.997ZM166.009 320.062V308.05H153.997V320.062H166.009ZM322.088 355.95V343.938H190.105V355.95H322.088ZM406.243 332V320.062H382.22V212.029H418.255V200.018H382.22V176.067H370.208V188.006H358.196V200.018H346.258V212.029H358.196V320.062H370.208V332H406.243ZM418.255 320.062V308.05H406.243V320.062H418.255Z" fill="#f7f7f7"/>
</svg>
